<?xml version="1.0" standalone="no"?>
<!DOCTYPE svg PUBLIC "-//W3C//DTD SVG 20010904//EN"
 "http://www.w3.org/TR/2001/REC-SVG-20010904/DTD/svg10.dtd">
<svg version="1.0" xmlns="http://www.w3.org/2000/svg"
 width="1519.000000pt" height="1519.000000pt" viewBox="0 0 1519.000000 1519.000000"
 preserveAspectRatio="xMidYMid meet">
<metadata>
Created by potrace 1.11, written by Peter Selinger 2001-2013
</metadata>
<g transform="translate(0.000000,1519.000000) scale(0.100000,-0.100000)"
fill="#000000" stroke="none">
<path d="M7561 15144 c-17 -25 -31 -47 -31 -49 0 -17 -266 -385 -354 -490
-214 -254 -475 -516 -681 -681 -33 -26 -62 -51 -65 -54 -11 -15 -258 -195
-353 -258 -466 -312 -1048 -572 -1562 -698 -137 -34 -274 -65 -310 -70 -16 -3
-64 -11 -105 -19 -68 -12 -232 -36 -350 -49 -47 -6 -153 -14 -280 -21 -210
-12 -629 -1 -795 21 -16 2 -52 6 -80 9 -27 3 -59 7 -70 9 -11 2 -47 7 -80 11
-33 3 -105 15 -160 25 -55 11 -115 22 -134 25 -19 3 -37 7 -40 9 -3 2 -22 7
-41 10 -32 5 -87 19 -245 61 -33 9 -67 18 -75 20 -8 2 -25 7 -38 11 -20 6 -22
3 -23 -32 -1 -22 -2 -50 -4 -64 -1 -14 -6 -72 -9 -130 -4 -58 -9 -129 -11
-158 -5 -62 -15 -268 -20 -427 -6 -150 -6 -701 0 -855 5 -154 14 -361 20 -455
9 -148 30 -400 41 -500 3 -27 7 -68 8 -90 8 -92 49 -428 66 -540 5 -33 12 -80
15 -105 3 -25 15 -99 26 -165 11 -66 22 -133 25 -150 7 -48 43 -240 69 -367 3
-16 7 -40 10 -55 3 -16 8 -39 11 -53 3 -14 8 -36 10 -50 3 -14 25 -113 50
-220 24 -107 47 -205 50 -218 2 -12 21 -84 40 -160 20 -75 37 -144 39 -152 23
-119 259 -871 359 -1145 268 -735 596 -1466 937 -2082 16 -29 43 -79 61 -110
315 -575 762 -1253 1197 -1818 63 -82 118 -152 121 -155 3 -3 44 -52 90 -110
46 -58 98 -121 115 -141 16 -19 50 -59 75 -88 25 -30 52 -61 60 -71 8 -10 35
-42 60 -71 49 -58 183 -210 215 -245 11 -12 63 -68 115 -125 332 -361 723
-746 1065 -1047 77 -68 151 -134 165 -146 14 -12 72 -62 130 -110 58 -49 116
-98 130 -110 23 -19 212 -171 235 -189 5 -4 21 -17 35 -28 24 -21 41 -33 200
-154 41 -32 80 -61 86 -66 7 -6 33 8 70 36 32 25 64 48 69 52 16 12 138 106
155 120 8 7 78 62 155 124 77 61 154 123 171 138 17 14 52 44 79 66 26 22 53
45 59 50 6 6 56 49 111 96 473 408 892 819 1355 1329 57 62 91 102 205 235 66
77 128 149 137 160 14 17 86 104 157 190 483 588 1061 1445 1418 2105 258 477
366 695 592 1195 181 398 402 991 572 1529 126 401 319 1144 343 1321 3 22 10
60 16 85 12 47 13 51 24 110 9 50 14 78 27 139 6 30 12 64 14 75 1 12 8 50 15
86 7 36 14 74 15 85 2 11 6 40 10 65 4 25 9 54 10 65 2 11 6 35 9 53 9 49 14
83 21 132 6 50 16 117 20 141 2 9 6 40 10 70 3 30 8 65 10 79 4 26 6 46 29
255 18 156 24 217 32 310 3 39 7 90 9 115 3 25 7 90 11 145 3 55 8 120 9 145
27 394 27 1416 0 1690 -1 19 -6 88 -10 153 -4 64 -8 125 -10 135 -2 9 -4 32
-4 51 -1 30 -3 33 -23 27 -45 -13 -364 -95 -393 -101 -17 -3 -64 -12 -105 -20
-41 -8 -84 -16 -95 -18 -11 -3 -42 -8 -68 -11 -27 -4 -57 -9 -66 -11 -10 -2
-42 -6 -72 -10 -30 -3 -65 -8 -79 -10 -162 -27 -611 -43 -880 -31 -208 10
-552 51 -715 86 -22 5 -57 11 -79 14 -21 4 -41 8 -45 10 -3 3 -26 7 -50 11
-24 3 -54 10 -68 16 -13 5 -36 11 -51 14 -15 3 -52 12 -82 20 -30 9 -62 18
-70 20 -128 33 -373 117 -545 188 -256 105 -442 199 -730 368 -82 48 -283 185
-380 257 -118 89 -178 135 -185 142 -3 3 -34 30 -70 60 -119 101 -144 124
-305 285 -88 88 -203 210 -255 271 -120 140 -114 134 -202 251 -40 54 -75 100
-78 103 -12 12 -117 171 -160 242 l-47 77 -32 -45z"/>
</g>
</svg>
